<?xml version="1.0" encoding="UTF-8"?>
<svg id="Layer_2" data-name="Layer 2" xmlns="http://www.w3.org/2000/svg" viewBox="0 0 109.72 91.51">
  <defs>
    <style>
      .cls-1 {
        stroke: #57283a;
      }

      .cls-1, .cls-2 {
        opacity: .9;
        stroke-linejoin: round;
        stroke-width: 1.12px;
      }

      .cls-1, .cls-2, .cls-3 {
        fill: none;
      }

      .cls-2 {
        stroke: #9f7094;
      }

      .cls-3 {
        stroke-width: 0px;
      }
    </style>
  </defs>
  <g id="Layer_1-2" data-name="Layer 1">
    <g>
      <g>
        <path class="cls-1" d="m24.73,87.61s20.39,2.26,20.39-20.13"/>
        <path class="cls-1" d="m55.9,71.77c-7.99,0-18.24-8.12-19.31-20.24,0,0-6.66-1.73-6.66-8.52s4.98-5.46,4.98-5.46c0,0-4.45-26.49,20.98-26.49"/>
        <path class="cls-1" d="m40.72,34.49c4.39-3.3,9.19,0,9.19,0"/>
        <path class="cls-1" d="m49.91,42.57c-4.39,6-9.19,0-9.19,0"/>
        <path class="cls-1" d="m87.07,87.61s-20.39,2.26-20.39-20.13"/>
        <path class="cls-1" d="m55.9,71.77c7.99,0,18.24-8.12,19.31-20.24,0,0,6.66-1.73,6.66-8.52,0-6.79-4.98-5.46-4.98-5.46,0,0,4.45-26.49-20.98-26.49"/>
        <path class="cls-1" d="m71.07,34.49c-4.39-3.3-9.19,0-9.19,0"/>
        <path class="cls-1" d="m61.89,42.57c4.39,6,9.19,0,9.19,0"/>
        <path class="cls-1" d="m61.64,59.48s-2.5,2.5-5.74,2.66h0c-3.25-.16-5.74-2.66-5.74-2.66"/>
        <path class="cls-1" d="m86.66,56.66s0-20.54,0-23.63c0-8.92-7.4-29.19-30.76-29.19-23.37,0-30.76,20.27-30.76,29.19v18.54"/>
        <path class="cls-1" d="m77.09,31.29s-6.45-10.48-21.23-10.48h.03c-14.78,0-21.23,10.48-21.23,10.48"/>
        <path class="cls-1" d="m62.58,11.78c0,4.39.74,4.38.74,10"/>
        <line class="cls-2" x1="14.4" y1="58.35" x2="26.7" y2="58.35"/>
        <line class="cls-2" x1="20.55" y1="52.21" x2="20.55" y2="64.5"/>
        <line class="cls-2" x1="25.13" y1="67.48" x2="37.43" y2="67.48"/>
        <line class="cls-2" x1="31.28" y1="61.33" x2="31.28" y2="73.63"/>
        <line class="cls-2" x1="76.87" y1="64.5" x2="89.17" y2="64.5"/>
        <line class="cls-2" x1="83.02" y1="58.35" x2="83.02" y2="70.65"/>
        <line class="cls-2" x1="83.02" y1="77.58" x2="95.32" y2="77.58"/>
        <line class="cls-2" x1="89.17" y1="71.43" x2="89.17" y2="83.73"/>
      </g>
      <rect class="cls-3" width="109.72" height="91.51"/>
    </g>
  </g>
</svg>