<?xml version="1.0" encoding="UTF-8"?>
<svg id="Layer_2" data-name="Layer 2" xmlns="http://www.w3.org/2000/svg" viewBox="0 0 109.72 91.51">
  <defs>
    <style>
      .cls-1 {
        stroke: #57283a;
      }

      .cls-1, .cls-2, .cls-3 {
        opacity: .9;
      }

      .cls-1, .cls-3 {
        stroke-linejoin: round;
        stroke-width: 1.12px;
      }

      .cls-1, .cls-3, .cls-4 {
        fill: none;
      }

      .cls-3 {
        stroke: #9f7094;
      }

      .cls-4 {
        stroke-width: 0px;
      }
    </style>
  </defs>
  <g id="Layer_1-2" data-name="Layer 1">
    <g>
      <g class="cls-2">
        <path class="cls-1" d="m44.7,6.98c0,9.1-25.87,2.16-25.87,26.67,0,4.39.8,6.55.8,6.55"/>
        <path class="cls-1" d="m13.32,56.73s4.79-4.95,5.51-5.99,1.44-6.87,3.43-8.86,11.98-13.66,11.98-13.66c0,0,.83-.77,1.63-.24.65.44.7,1.45.39,1.88-.83,1.14-5.37,6.51-5.37,6.51"/>
        <path class="cls-1" d="m36.26,29.86s2.07-3,3.26-1.86c.15.14.83.48-.17,2l-6.01,7.97"/>
        <path class="cls-1" d="m39.35,30s1.23-1.53,2.25-1.8c1.36-.32,2.1,1.18,1.37,2.17l-7.12,9.62"/>
        <path class="cls-1" d="m42.25,31.34s.83-.79,1.79,0,.36,2.2.36,2.2l-7.79,12.58"/>
        <path class="cls-1" d="m40.39,45.46s.9-.24,1.56-.24,2.4.84,2.13,1.65-2.43,1.38-3.68,2.43c-1.26,1.05-7.04,5.81-7.64,5.87s-3.5-.63-5.12.84c-1.62,1.47-14.1,15.3-14.1,15.3"/>
        <path class="cls-3" d="m46.5,24.35c1.59,1.59,3.65,5.75,1.74,12.34"/>
        <path class="cls-1" d="m33.98,57.88c1.02,2.1,2.87,10.36,2.87,15.09s-1.92,11.56-1.92,11.56"/>
        <path class="cls-1" d="m28.53,60.76v7.43c0,4.13-.66,9.7-2.58,12.94"/>
        <path class="cls-1" d="m65.02,6.98c0,9.1,25.87,2.16,25.87,26.67,0,4.39-.8,6.55-.8,6.55"/>
        <path class="cls-1" d="m96.4,56.73s-4.79-4.95-5.51-5.99-1.44-6.87-3.43-8.86c-2-2-11.98-13.66-11.98-13.66,0,0-.83-.77-1.63-.24-.65.44-.7,1.45-.39,1.88.83,1.14,5.37,6.51,5.37,6.51"/>
        <path class="cls-1" d="m73.46,29.86s-2.07-3-3.26-1.86c-.15.14-.83.48.17,2l6.01,7.97"/>
        <path class="cls-1" d="m70.37,30s-1.23-1.53-2.25-1.8c-1.36-.32-2.1,1.18-1.37,2.17l7.12,9.62"/>
        <path class="cls-1" d="m67.47,31.34s-.83-.79-1.79,0-.36,2.2-.36,2.2l7.79,12.58"/>
        <path class="cls-1" d="m69.33,45.46s-.9-.24-1.56-.24-2.4.84-2.13,1.65,2.43,1.38,3.68,2.43,7.04,5.81,7.64,5.87,3.5-.63,5.12.84,14.1,15.3,14.1,15.3"/>
        <path class="cls-3" d="m63.22,24.35c-1.59,1.59-3.65,5.75-1.74,12.34"/>
        <path class="cls-1" d="m75.74,57.88c-1.02,2.1-2.87,10.36-2.87,15.09,0,4.73,1.92,11.56,1.92,11.56"/>
        <path class="cls-1" d="m81.19,60.76s0,3.29,0,7.43c0,4.13.66,9.7,2.58,12.94"/>
      </g>
      <rect class="cls-4" width="109.72" height="91.51"/>
    </g>
  </g>
</svg>