<?xml version="1.0" encoding="UTF-8"?>
<svg id="Layer_2" data-name="Layer 2" xmlns="http://www.w3.org/2000/svg" viewBox="0 0 112.57 93.89">
  <defs>
    <style>
      .cls-1 {
        stroke: #57283a;
      }

      .cls-1, .cls-2, .cls-3, .cls-4 {
        fill: none;
      }

      .cls-1, .cls-2, .cls-4 {
        opacity: .9;
        stroke-linejoin: round;
        stroke-width: 1.12px;
      }

      .cls-2 {
        stroke: #9f7094;
      }

      .cls-3 {
        stroke-width: 0px;
      }

      .cls-4 {
        stroke: #000;
      }
    </style>
  </defs>
  <g id="Layer_1-2" data-name="Layer 1">
    <g>
      <g>
        <path class="cls-1" d="m10.38,72.25h14.01c-1.45,2.52-2.24,3.31-2.24,8.02s3.71,8.52,8.29,8.52,8.16-3.82,8.29-8.52c.1-3.49-.37-4.57-2.57-8.02h14.01c-1.45,2.52-2.24,3.31-2.24,8.02s3.71,8.52,8.29,8.52,8.13-3.82,8.29-8.52c.13-3.68-.37-4.57-2.57-8.02h14.26c-1.45,2.52-2.24,3.31-2.24,8.02s3.71,8.52,8.29,8.52,8.16-3.82,8.29-8.52c.1-3.61-.37-4.57-2.57-8.02h14.22"/>
        <path class="cls-2" d="m34.22,75.64c1.08,1.01,1.75,2.44,1.75,4.04,0,3.05-2.47,5.53-5.53,5.53-1.26,0-2.43-.42-3.36-1.14"/>
        <path class="cls-2" d="m33.37,52.37c.74.69,1.2,1.67,1.2,2.76,0,2.09-1.69,3.78-3.78,3.78-.86,0-1.66-.29-2.3-.78"/>
        <path class="cls-2" d="m59.19,62.17c.74.69,1.2,1.67,1.2,2.76,0,2.09-1.69,3.78-3.78,3.78-.86,0-1.66-.29-2.3-.78"/>
        <path class="cls-2" d="m84.84,77.25c.74.69,1.2,1.67,1.2,2.76,0,2.09-1.69,3.78-3.78,3.78-.86,0-1.66-.29-2.3-.78"/>
        <path class="cls-2" d="m60.04,75.64c1.08,1.01,1.75,2.44,1.75,4.04,0,3.05-2.47,5.53-5.53,5.53-1.26,0-2.43-.42-3.36-1.14"/>
        <path class="cls-2" d="m89.54,42.82c-2.6,5.83-4.93,13.33-5.52,22.16"/>
        <path class="cls-1" d="m89.32,40.84c4.39-7.2,8.66-11.83,8.66-11.83,0,0-3.89,4.3-7.58,11.95"/>
        <path class="cls-2" d="m80.35,64.23c1.1-7.94,4.37-15.41,7.8-21.41"/>
        <path class="cls-1" d="m83.91,67.42c-.02.61-.03,1.22-.03,1.84,0,4.25,4.27,5.18,4.27,10.96,0,3.29-2.88,6.04-6,6.04s-5.65-2.66-5.65-5.95c0-4.52,3.46-7.52,3.46-10.43,0-1.03.04-2.05.11-3.07"/>
        <path class="cls-4" d="m61.79,62.45c.34.8.56,1.67.56,2.67"/>
        <path class="cls-2" d="m61.12,36.32c-1.59,5.34-2.7,11.53-2.7,18.43,0,1.92.8,3.37,1.68,4.76"/>
        <path class="cls-1" d="m59.89,33.69c5.31-11.25,12.64-19.19,12.64-19.19,0,0-6.63,7.33-10.8,19.89"/>
        <path class="cls-2" d="m54.22,56.81c.18-.57.29-1.11.29-1.6,0-7.02,1.98-13.86,4.62-19.86"/>
        <path class="cls-1" d="m62.35,65.12c0,3.12-2.53,5.65-5.65,5.65s-5.65-2.53-5.65-5.65c0-1.65,1.2-3.84,2.19-5.93"/>
        <path class="cls-4" d="m34.37,50.24c1.04,1.64,2.16,3.23,2.16,5.48"/>
        <path class="cls-2" d="m36.33,23.79c-2.12,6-3.72,13.27-3.72,21.56,0,.39.03.77.1,1.13"/>
        <path class="cls-1" d="m35.74,20.97c5.06-9.47,10.98-15.88,10.98-15.88,0,0-5.51,6.09-9.64,16.68"/>
        <path class="cls-2" d="m28.72,44.17c.33-7.7,2.94-15.12,6.08-21.39"/>
        <path class="cls-1" d="m36.53,55.71c0,3.12-2.53,5.65-5.65,5.65s-5.65-2.53-5.65-5.65c0-2.59,2.95-6.49,3.4-9.24"/>
        <path class="cls-1" d="m10.38,32.28s35.67,36.44,91.8,36.44"/>
        <path class="cls-1" d="m27.09,14.16s28.22,27.38,75.09,27.38"/>
      </g>
      <rect class="cls-3" width="112.57" height="93.89"/>
    </g>
  </g>
</svg>