<?xml version="1.0" encoding="UTF-8"?>
<svg id="Layer_2" data-name="Layer 2" xmlns="http://www.w3.org/2000/svg" viewBox="0 0 109.41 91.25">
  <defs>
    <style>
      .cls-1 {
        fill: #9f7094;
      }

      .cls-1, .cls-2, .cls-3 {
        stroke-width: 0px;
      }

      .cls-2 {
        fill: #57283a;
      }

      .cls-3 {
        fill: none;
      }
    </style>
  </defs>
  <g id="Layer_1-2" data-name="Layer 1">
    <g>
      <g>
        <path class="cls-2" d="m21.95,70.22c-1.72-.45-1.99-.36-2.92,1.02-.75,1.1-1.02,2.34-1.04,3.66,0,.25-.22.5-.34.75-.16-.26-.44-.51-.45-.77-.06-1.88.53-3.54,1.9-5.07-2.06-.11-3.85.28-5.52,1.23-.15.08-.28.24-.44.27-.22.04-.56.07-.66-.05-.12-.14-.13-.52-.01-.67.42-.54.85-1.09,1.38-1.52,2.4-1.93,5.17-2.27,8.12-1.82,4.13.63,8.24,1.38,12.39,1.87,5.53.65,11.04.59,16.31-1.6,3.51-1.46,6.58-3.57,9.24-6.28.25-.26.68-.33,1.03-.49v1.2c2.57-.69,4.98-1.84,6.99-3.75.31-.3.57-.65.9-.92.13-.11.39-.06.59-.08,0,.2.1.49,0,.6-.49.56-1,1.11-1.56,1.59-2.24,1.89-4.86,2.97-7.68,3.64-.4.09-.76.38-1.13.58l.1.38c1.48-.16,2.97-.25,4.43-.51,2.5-.44,4.82-1.41,7.02-2.68.24-.14.59-.08.89-.11-.17.27-.27.66-.51.8-3.83,2.27-7.95,3.45-12.44,3.19-.33-.02-.67.22-.97.46,4.01,1.05,7.97,1.42,11.89-.15.05-.02.11-.06.16-.06.32,0,.64.03.96.04-.23.24-.41.6-.69.71-.79.32-1.61.61-2.44.79-3.25.71-6.5.5-9.69-.35-.98-.26-1.63-.04-2.4.9,1.89.41,3.65.87,5.43,1.15,2.66.41,5.31.22,7.92-.43.25-.06.55.11.83.17-.21.21-.39.55-.64.61-4.4,1.11-8.74.82-13.02-.6-1.47-.49-1.47-.5-2.78.54,1.9,1.02,3.9,1.62,5.98,1.96,2.46.4,4.9.32,7.34-.19.26-.05.57.14.86.21-.24.19-.45.49-.71.55-4.48,1.02-8.84.52-12.98-1.4-1.2-.56-2.11-.57-3.24.45,1.42.64,2.74,1.35,4.15,1.84,2.72.95,5.52,1.18,8.38.69.27-.05.58.15.87.24-.23.19-.44.49-.7.54-4.57.79-8.82-.1-12.74-2.53-.65-.4-1.14-.49-1.78-.13-.41.23-.88.37-1.42.8,1.17.73,2.29,1.57,3.52,2.18,2.59,1.3,5.38,1.71,8.26,1.53.14,0,.31-.08.42-.03.21.09.39.24.58.37-.18.14-.36.41-.53.41-1.51,0-3.04.07-4.53-.13-3.16-.43-5.96-1.74-8.32-3.93-.17-.16-.52-.24-.75-.19-.61.12-1.21.32-1.96.53.48.51.86,1,1.31,1.41,2.52,2.25,5.58,3.16,8.86,3.5.57.06,1.15.06,1.71.14.18.03.33.24.49.36-.18.14-.36.39-.54.39-4.76-.14-9.13-1.25-12.33-5.13-.32-.39-.59-.51-1.07-.41-.76.15-1.53.22-2.29.33-.05,0-.09.06-.19.12.92,1.34,2.08,2.42,3.39,3.35,1.84,1.32,3.87,2.2,6.06,2.74.25.06.53.06.74.19.21.12.35.35.52.53-.24.09-.51.29-.72.24-.97-.23-1.95-.47-2.88-.82-3.19-1.18-5.87-3.06-7.89-5.83-.18-.24-.57-.4-.89-.45-.47-.07-.96-.02-1.59-.02.18.37.29.65.43.91,1.76,3.12,4.42,5.11,7.77,6.26.19.07.42.07.56.19.21.16.36.4.53.61-.25.06-.53.23-.74.16-3.97-1.17-7.09-3.45-9-7.16-.42-.81-.88-1.16-1.73-1.14-.4,0-.79-.06-1.3-.1.09.35.14.64.23.92,1.14,3.43,3.34,5.95,6.56,7.57.2.1.45.17.59.33.11.11.14.36.09.52-.03.09-.28.16-.43.16-.16,0-.32-.11-.47-.18-3.63-1.8-6.09-4.6-7.23-8.5-.23-.77-.53-1.17-1.34-1.2-.5-.02-.99-.16-1.58-.27.13,3.18,1.3,5.8,3.47,7.97.54.55,1.2.98,1.75,1.51.18.17.21.5.31.75-.26-.02-.58.04-.76-.09-3.22-2.33-5.23-5.41-5.54-9.44-.06-.74-.28-1.07-.99-1.16-.56-.08-1.12-.25-1.67-.37-.05-.01-.11.01-.27.04,0,3.02.16,5.99,2.26,8.47.15.18.12.52.18.79-.26-.08-.61-.08-.78-.25-1.48-1.57-2.06-3.54-2.32-5.61-.15-1.21-.17-2.45-.25-3.68,0,0-.02-.04-.04-.04-2.28-.56-1.94-.9-2.46,1.52-.44,2.04-.38,4.09.08,6.13.06.27-.12.59-.19.88-.2-.23-.51-.43-.58-.69-.67-2.82-.5-5.62.35-8.44Zm-5.69-1.41c1.25,0,2.38-.15,3.45.03,2.75.48,5.5,1.04,8.22,1.68,4.68,1.11,9.38,1.78,14.18.93,2.37-.42,4.66-1.1,6.9-2.11-1.76.31-3.46.7-5.17.9-4.9.57-9.76,0-14.6-.76-3.02-.48-6.04-.95-9.07-1.36-1.31-.18-2.58.11-3.91.69Z"/>
        <path class="cls-2" d="m73.87,46.26c-1.59-.43-3.02-.83-4.46-1.2-7.25-1.82-14.56-3.32-22.07-3.54-7.66-.23-14.94,1.55-22.02,4.25-3.98,1.52-7.87,3.26-11.83,4.84-2.5,1-4.77.4-6.81-1.25-.22-.18-.42-.4-.59-.62-.94-1.24-.76-2.42.62-3.15,1.39-.73,2.83-1.38,4.29-1.96,8.26-3.32,16.78-5.68,25.63-6.82,8.02-1.03,15.84-.11,23.44,2.48,4.59,1.57,9.05,3.52,13.57,5.3.19.07.44.13.52.27.16.26.33.61.27.88-.04.22-.41.37-.57.5Zm-4.06-2.22s.02-.05.04-.08c-1.35-.55-2.69-1.1-4.05-1.64-10.07-3.96-20.36-6.06-31.24-4.23-9.31,1.57-18.29,4.14-26.87,8.09-1.45.67-1.53,1.37-.35,2.42.17.15.35.29.55.42,1.73,1.1,3.54,1.39,5.47.58,3.61-1.51,7.21-3.08,10.86-4.5,6.43-2.5,13.05-4.27,19.99-4.56,5.41-.23,10.74.47,16.04,1.47,3.2.61,6.37,1.35,9.55,2.03Z"/>
        <path class="cls-2" d="m41.08,27.29c-1.06-.54-2.12-1.08-3.18-1.61-10.12-5.08-20.25-10.15-30.36-15.24-.41-.21-1.22-.31-.9-.99.36-.78.95-.12,1.37.09,11.87,5.94,23.72,11.9,35.59,17.83.73.37,1.57.51,2.33.85.29.13.49.5.72.75-.32.08-.65.25-.96.21-2.55-.32-5.09-.74-7.64-1-7.55-.77-15.1-1.48-22.65-2.21-3.19-.31-6.38-.61-9.57-.91-.11-.01-.26.02-.34-.03-.25-.17-.48-.37-.72-.56.26-.15.53-.45.77-.43,1.51.09,3.02.25,4.53.4,6.27.61,12.53,1.23,18.8,1.83,4.04.39,8.09.77,12.13,1.16.03-.04.05-.09.08-.13Z"/>
        <path class="cls-2" d="m76.57,37.63c.24.13.47.27.71.39,9.23,4.62,18.47,9.23,27.7,13.85.39.2,1.13.3.83.95-.34.72-.89.16-1.3-.05-10.44-5.2-20.87-10.43-31.32-15.62-.82-.41-1.81-.49-2.68-.82-.29-.11-.47-.49-.71-.75.32-.08.69-.3.94-.21,3.39,1.26,6.97,1.14,10.47,1.52,7.46.79,14.92,1.47,22.39,2.2.97.09,1.94.14,2.9.28.27.04.5.34.75.53-.28.16-.57.48-.84.45-3.96-.35-7.92-.74-11.88-1.12-5.97-.57-11.95-1.15-17.92-1.73-.01.04-.03.08-.04.12Z"/>
        <path class="cls-2" d="m4.27,48.69c.2.15.37.29.55.41,1,.69,2.02,1.37,3,2.09.21.16.34.44.5.67-.29.09-.68.34-.84.23-1.19-.76-2.35-1.58-3.49-2.42-.14-.11-.16-.45-.14-.67,0-.1.24-.18.42-.31Z"/>
        <path class="cls-2" d="m3.09,50.59c.19.1.32.15.44.22.81.48,1.63.94,2.41,1.46.18.12.24.44.35.67-.24.08-.56.3-.72.22-.93-.5-1.83-1.05-2.71-1.62-.14-.09-.2-.4-.17-.59.02-.14.26-.24.39-.36Z"/>
        <path class="cls-1" d="m48.6,28.97c.75.22,1.39.36,1.99.61.18.07.25.42.37.64-.21.11-.44.34-.62.3-.64-.12-1.27-.3-1.87-.54-.18-.07-.35-.43-.34-.65,0-.14.34-.27.47-.36Z"/>
        <path class="cls-1" d="m67.82,35.59c-.77-.22-1.41-.38-2.01-.61-.17-.07-.25-.38-.37-.58.22-.13.46-.39.65-.36.64.11,1.27.3,1.87.54.17.07.38.41.34.57-.06.2-.35.33-.47.44Z"/>
        <path class="cls-1" d="m59.12,33.08c-.75-.22-1.36-.36-1.93-.59-.19-.08-.28-.4-.41-.62.22-.11.47-.35.66-.32.61.11,1.21.29,1.79.52.19.08.4.42.38.61-.02.17-.36.3-.49.4Z"/>
        <path class="cls-1" d="m63.48,34.33c-.75-.22-1.36-.35-1.94-.58-.19-.08-.29-.41-.43-.62.22-.12.47-.36.66-.33.64.12,1.27.3,1.87.54.17.06.37.43.32.57-.07.2-.36.32-.48.41Z"/>
        <path class="cls-1" d="m54.79,31.83c-.77-.23-1.44-.4-2.08-.64-.15-.06-.32-.42-.27-.54.09-.18.39-.42.55-.38.67.13,1.33.33,1.97.57.16.06.33.42.29.6-.03.17-.33.28-.47.39Z"/>
        <path class="cls-2" d="m4.14,53.72c-.21.12-.51.39-.63.33-.48-.26-.91-.63-1.36-.95.18-.14.41-.44.52-.4.52.17,1.01.44,1.51.68-.01.11-.03.23-.04.34Z"/>
      </g>
      <rect class="cls-3" width="109.41" height="91.25"/>
    </g>
  </g>
</svg>